<svg width="160" height="160" viewBox="0 0 160 160" fill="none" xmlns="http://www.w3.org/2000/svg">
<path d="M160 30L148.214 79.6219C146.064 88.6763 138.062 95 128.756 95H57.22L60.035 106.73C61.115 111.231 65.1031 114.375 69.7319 114.375H140.625V124.375H69.7319C60.4606 124.375 52.4744 118.079 50.3106 109.064L28.3713 17.6456C27.2906 13.1438 23.3031 10 18.6737 10H0V0H18.6737C27.9444 0 35.9313 6.29625 38.095 15.3119L41.62 30H160ZM59.1556 145.625C59.1556 153.564 65.5912 160 73.5306 160C81.47 160 87.9056 153.564 87.9056 145.625C87.9056 137.686 81.47 131.25 73.5306 131.25C65.5912 131.25 59.1556 137.686 59.1556 145.625ZM111.656 145.625C111.656 153.564 118.091 160 126.031 160C133.97 160 140.406 153.564 140.406 145.625C140.406 137.686 133.97 131.25 126.031 131.25C118.091 131.25 111.656 137.686 111.656 145.625Z" fill="white"/>
</svg>
