<svg width="40" height="40" viewBox="0 0 40 40" fill="none" xmlns="http://www.w3.org/2000/svg">
<path d="M33.3335 8.33333H6.66683V31.6667L22.1535 16.1767C22.466 15.8642 22.8899 15.6887 23.3318 15.6887C23.7738 15.6887 24.1976 15.8642 24.5102 16.1767L33.3335 25.0167V8.33333ZM3.3335 6.655C3.33655 6.2173 3.51166 5.79836 3.82102 5.4887C4.13037 5.17903 4.54913 5.00349 4.98683 5H35.0135C35.9268 5 36.6668 5.74167 36.6668 6.655V33.345C36.6638 33.7827 36.4887 34.2016 36.1793 34.5113C35.87 34.821 35.4512 34.9965 35.0135 35H4.98683C4.54819 34.9996 4.12766 34.825 3.81765 34.5147C3.50763 34.2043 3.3335 33.7836 3.3335 33.345V6.655ZM13.3335 18.3333C12.4494 18.3333 11.6016 17.9821 10.9765 17.357C10.3514 16.7319 10.0002 15.8841 10.0002 15C10.0002 14.1159 10.3514 13.2681 10.9765 12.643C11.6016 12.0179 12.4494 11.6667 13.3335 11.6667C14.2176 11.6667 15.0654 12.0179 15.6905 12.643C16.3156 13.2681 16.6668 14.1159 16.6668 15C16.6668 15.8841 16.3156 16.7319 15.6905 17.357C15.0654 17.9821 14.2176 18.3333 13.3335 18.3333Z" fill="black"/>
</svg>
