<svg width="193" height="124" viewBox="0 0 193 124" fill="none" xmlns="http://www.w3.org/2000/svg">
<path d="M8.2786 109.353C9.91927 109.353 10.7653 108.535 10.7653 106.972C10.7653 105.385 9.94407 104.516 8.2786 104.516H3.75332V109.353H8.2786ZM7.60734 102.036C9.2486 102.036 10.0686 101.167 10.0686 99.6047C10.0686 98.0421 9.2486 97.1986 7.60734 97.1986H3.75332V102.036H7.60734ZM0.769531 94.594H8.10444C11.1632 94.594 13.0772 96.1319 13.0772 99.2572C13.0772 101.193 12.3062 102.284 10.989 102.953C12.5051 103.499 13.7485 104.615 13.7485 107.146C13.7485 110.346 11.8587 111.958 8.77629 111.958H0.769531V94.594Z" fill="white"/>
<path d="M17.4766 94.594H20.4604V109.353H28.7895V111.958H17.4766V94.594Z" fill="white"/>
<path d="M40.027 105.186L37.6649 98.5627L35.2532 105.186H40.027ZM30.0312 110.966L36.248 94.594H39.181L45.3977 110.966V111.958H42.4635L40.922 107.666H34.3576L32.7913 111.958H30.0312V110.966Z" fill="white"/>
<path d="M47.8828 106.079V100.472C47.8828 96.5285 50.3193 94.2213 54.6456 94.2213C58.0521 94.2213 61.0601 96.0325 61.0601 100.225V100.472H58.0769V100.225C58.0769 97.8926 56.1369 96.9502 54.6208 96.9502C52.0598 96.9502 50.8666 98.2154 50.8666 100.274V106.277C50.8666 108.336 52.0598 109.601 54.6208 109.601C56.1369 109.601 58.0769 108.659 58.0769 106.327V106.079H61.0601V106.327C61.0601 110.519 58.0521 112.33 54.6456 112.33C50.3193 112.33 47.8828 110.023 47.8828 106.079Z" fill="white"/>
<path d="M65.0371 94.594H68.0209V101.961H70.2337L74.7837 94.594H77.5438V95.5865L72.8449 103.102L77.8915 110.966V111.958H74.9579L70.2337 104.566H68.0209V111.958H65.0371V94.594Z" fill="white"/>
<path d="M87.1405 108.882C89.4029 108.882 90.547 107.568 90.547 106.079V100.473C90.547 98.9845 89.4029 97.6698 87.1405 97.6698H84.3557V108.882H87.1405ZM80.8252 94.594H87.1405C91.3919 94.594 94.0775 96.7268 94.0775 100.572V105.98C94.0775 109.825 91.3919 111.958 87.1405 111.958H80.8252V94.594Z" fill="white"/>
<path d="M98.2041 94.5931H101.735V111.957H98.2041V94.5931Z" fill="white"/>
<path d="M114.191 104.963L112.301 99.3067L110.362 104.963H114.191ZM104.618 110.792L110.635 94.594H114.091L120.133 110.792V111.958H116.653L115.26 107.89H109.318L107.876 111.958H104.618V110.792Z" fill="white"/>
<path d="M129.854 106.55L126.423 100.845V111.958H123.017V94.594H126.423L130.998 102.259L135.573 94.594H138.88V111.958H135.474V100.845L132.042 106.55H129.854Z" fill="white"/>
<path d="M153.348 106.228V100.324C153.348 98.8356 152.304 97.4467 149.942 97.4467C147.58 97.4467 146.536 98.8356 146.536 100.324V106.228C146.536 107.716 147.58 109.106 149.942 109.106C152.304 109.106 153.348 107.716 153.348 106.228ZM143.005 106.054V100.497C143.005 96.5285 145.715 94.2219 149.942 94.2219C154.194 94.2219 156.879 96.5285 156.879 100.497V106.054C156.879 110.023 154.194 112.33 149.942 112.33C145.715 112.33 143.005 110.023 143.005 106.054Z" fill="white"/>
<path d="M161.006 94.5938H164.238L170.902 105.409V94.5938H174.432V111.957H171.2L164.536 101.142V111.957H161.006V94.5938Z" fill="white"/>
<path d="M185.37 108.882C187.632 108.882 188.777 107.568 188.777 106.079V100.473C188.777 98.9845 187.632 97.6698 185.37 97.6698H182.585V108.882H185.37ZM179.055 94.594H185.37C189.621 94.594 192.307 96.7268 192.307 100.572V105.98C192.307 109.825 189.621 111.958 185.37 111.958H179.055V94.594Z" fill="white"/>
<path d="M103.229 13.6855V53.5191L130.336 26.4758L117.515 13.6855H103.229ZM89.9733 0.461617H120.493L122.895 0.462799L148.97 26.4758L96.6007 78.7205L44.2324 26.4758L63.6812 7.07326H82.3139L62.8658 26.4758L89.9733 53.5191V0.461617Z" fill="white"/>
<path d="M71.7642 117.306V118.041H69.0892V120.063H71.5361V120.772H69.0892V123.434H68.3174V117.306H71.7642Z" fill="white"/>
<path d="M75.6374 123.539C73.7781 123.539 72.4187 122.182 72.4187 120.379C72.4187 118.567 73.7781 117.21 75.6374 117.21C77.4968 117.21 78.8474 118.567 78.8474 120.379C78.8474 122.182 77.4968 123.539 75.6374 123.539ZM75.6374 122.786C77.0319 122.786 78.0668 121.753 78.0668 120.379C78.0668 118.995 77.0319 117.963 75.6374 117.963C74.2429 117.963 73.208 119.004 73.208 120.379C73.208 121.744 74.2429 122.786 75.6374 122.786Z" fill="white"/>
<path d="M82.453 123.539C81.0672 123.539 80.0411 122.549 80.0411 121.158V117.315H80.8217V121.096C80.8217 122.112 81.497 122.786 82.453 122.786C83.4002 122.786 84.0843 122.112 84.0843 121.096V117.315H84.8561V121.158C84.8561 122.549 83.8299 123.539 82.453 123.539Z" fill="white"/>
<path d="M90.5975 122.033V117.315H91.3518V123.442H90.7028L87.2121 118.654V123.442H86.4578V117.315H87.1595L90.5975 122.033Z" fill="white"/>
<path d="M93.0271 117.306L95.0706 117.315C96.8774 117.315 98.1842 118.602 98.1842 120.37C98.1842 122.147 96.8774 123.434 95.0706 123.434H93.0271V117.306ZM93.7989 122.716H95.0531C96.4301 122.716 97.4036 121.727 97.4036 120.37C97.4036 119.022 96.4301 118.033 95.0531 118.033H93.7989V122.716Z" fill="white"/>
<path d="M104.35 123.434H103.517L102.912 121.972H99.9561L99.3597 123.434H98.544L101.052 117.306H101.772L104.35 123.434ZM102.622 121.263L101.421 118.365L100.245 121.263H102.622Z" fill="white"/>
<path d="M104.121 117.306H108.62V118.033H106.752V123.434H105.989V118.033H104.121V117.306Z" fill="white"/>
<path d="M110.415 123.434H109.643V117.306H110.415V123.434Z" fill="white"/>
<path d="M114.89 123.539C113.031 123.539 111.672 122.182 111.672 120.379C111.672 118.567 113.031 117.21 114.89 117.21C116.75 117.21 118.1 118.567 118.1 120.379C118.1 122.182 116.75 123.539 114.89 123.539ZM114.89 122.786C116.285 122.786 117.32 121.753 117.32 120.379C117.32 118.995 116.285 117.963 114.89 117.963C113.496 117.963 112.461 119.004 112.461 120.379C112.461 121.744 113.496 122.786 114.89 122.786Z" fill="white"/>
<path d="M123.504 122.033V117.315H124.258V123.442H123.609L120.118 118.654V123.442H119.364V117.315H120.066L123.504 122.033Z" fill="white"/>
</svg>
