<svg width="123" height="32" viewBox="0 0 123 32" fill="none" xmlns="http://www.w3.org/2000/svg">
<path d="M110.891 14.2461C111.345 12.6616 112.481 11.7916 114.116 11.7916C115.809 11.7916 116.982 12.6517 117.475 14.2461H110.891ZM95.1495 15.6115L99.9337 8.76865V22.7584L95.1495 15.6115ZM114.117 7.4868C109.8 7.4868 106.474 10.0571 105.543 13.8013V0.00105286L99.9337 2.27192V8.00862H94.1654L90.0465 14.2586V2.2706L84.437 4.54146V7.93295H83.2109C81.2725 7.93295 79.8737 8.4778 78.7249 9.77938L77.85 8.00862H74.0916V23.9612H79.7011V15.849C79.7011 13.8144 80.5331 12.961 82.5191 12.961H84.437V23.9612H90.0465V17.2151L94.1257 23.9612H99.9337H100.738H105.543V18.1331C106.478 21.8806 109.821 24.4844 114.117 24.4844C118.203 24.4844 121.497 22.2096 122.643 18.5687H117.061C116.522 19.5024 115.427 20.0644 114.117 20.0644C112.346 20.0644 111.159 19.1181 110.792 17.2888H122.884C122.957 16.7953 123 16.3149 123 15.8346C123 11.1553 119.366 7.4868 114.117 7.4868Z" fill="url(#paint0_linear_988_17860)"/>
<path d="M63.8475 19.6643C61.8125 19.6643 60.1638 18.0232 60.1638 15.9984C60.1638 13.9736 61.8125 12.3325 63.8475 12.3325C65.8824 12.3325 67.5318 13.9736 67.5318 15.9984C67.5318 18.0232 65.8824 19.6643 63.8475 19.6643ZM46.0149 19.6643C43.9799 19.6643 42.3299 18.0232 42.3299 15.9984C42.3299 13.9736 43.9799 12.3325 46.0149 12.3325C48.0499 12.3325 49.6993 13.9736 49.6993 15.9984C49.6993 18.0232 48.0499 19.6643 46.0149 19.6643ZM31.6108 13.9157C30.0639 13.6453 28.8179 13.4341 28.8179 12.526C28.8179 11.787 29.302 11.3507 30.2015 11.3507C31.2173 11.3507 31.917 11.8245 31.917 12.8432H36.9928L36.9935 16.4518C35.895 14.6258 33.5208 14.248 31.6108 13.9157ZM68.174 9.18977C66.8295 8.10271 65.1159 7.47494 63.1987 7.47494C58.9833 7.47494 55.7942 9.9998 54.9127 13.7703C54.0291 9.98204 50.8414 7.44994 46.628 7.44994C44.6929 7.44994 42.9688 8.10534 41.6295 9.23978L40.9272 7.97242H36.9928V11.5758C36.3341 9.05948 33.8475 7.44994 30.2709 7.44994C26.0985 7.44994 23.4365 9.51418 23.4365 12.7115C23.4365 16.5801 26.7843 17.327 29.3093 17.7277C30.874 17.981 32.1068 18.2436 32.1068 19.1635C32.1068 19.988 31.329 20.398 30.5083 20.398C29.4449 20.398 28.6155 19.861 28.6155 18.695H23.2163C23.2679 22.151 25.9655 24.4475 30.4038 24.4475C33.5598 24.4475 35.9347 23.2835 36.9935 21.3627V31.9648L42.6262 29.6848H42.6579V23.4045C43.8073 24.0849 45.1552 24.4646 46.628 24.4646C50.8461 24.4646 54.0364 21.9141 54.916 18.1153C55.8015 21.8983 58.9879 24.4475 63.1987 24.4475C65.0895 24.4475 66.7786 23.8375 68.1125 22.7794L68.592 23.9079H72.9291V7.95597H68.748L68.174 9.18977Z" fill="url(#paint1_linear_988_17860)"/>
<path d="M8.96605 7.3807C9.03087 12.0284 12.8052 15.7837 17.4763 15.8482C12.8052 15.9127 9.03087 19.6681 8.96605 24.3151C8.90124 19.6681 5.12694 15.9127 0.455845 15.8482C5.12694 15.7837 8.90124 12.0284 8.96605 7.3807ZM2.34399 24.4375H15.5881C16.6985 24.4375 17.5986 23.5419 17.5986 22.4371V9.25872C17.5986 8.15455 16.6985 7.25897 15.5881 7.25897H2.34399C1.23359 7.25897 0.333496 8.15455 0.333496 9.25872V22.4371C0.333496 23.5419 1.23359 24.4375 2.34399 24.4375Z" fill="#46B839"/>
<defs>
<linearGradient id="paint0_linear_988_17860" x1="74.0804" y1="8.4455" x2="122.236" y2="19.9644" gradientUnits="userSpaceOnUse">
<stop stop-color="#EEDC00"/>
<stop offset="0.525" stop-color="#FFC845"/>
<stop offset="1" stop-color="#FF6900"/>
</linearGradient>
<linearGradient id="paint1_linear_988_17860" x1="72.9052" y1="14.222" x2="23.2358" y2="7.51896" gradientUnits="userSpaceOnUse">
<stop stop-color="#EEDC00"/>
<stop offset="0.515" stop-color="#97D700"/>
<stop offset="1" stop-color="#46B839"/>
</linearGradient>
</defs>
</svg>
